<?xml version="1.0" encoding="utf-8"?>
<!-- Generator: Adobe Illustrator 28.4.1, SVG Export Plug-In . SVG Version: 6.00 Build 0)  -->
<svg version="1.1" id="Layer_1" xmlns="http://www.w3.org/2000/svg" xmlns:xlink="http://www.w3.org/1999/xlink" x="0px" y="0px"
	 viewBox="0 0 800 800" style="enable-background:new 0 0 800 800;" xml:space="preserve">
<style type="text/css">
	.st0{fill:#FFB01F;}
</style>
<path class="st0" d="M762.4,487.7c0-36.6-19.9-69.8-51.5-87.1c0.9-4.3,1.4-8.7,1.4-13.1c0-9.1-2-18-5.9-26.3
	c12.1-18.3,18.5-39.4,18.5-61.4c0-37.8-19.2-72.9-50.5-93.6c0.3-2.3,0.4-4.4,0.4-6.6c0-19.5-9.4-37.8-25.1-49.4c0-0.2,0-0.4,0-0.7
	c0-45.2-30.8-84.7-74-96.1C558.7,20.8,524.7,0,487.7,0c-37.9,0-70.9,21.3-87.7,52.6C383.2,21.3,350.2,0,312.3,0
	c-37.1,0-71,20.8-88.1,53.4c-43.2,11.4-74,50.9-74,96.1c0,0.2,0,0.4,0,0.7c-15.6,11.6-25.1,29.9-25.1,49.4c0,2.2,0.1,4.4,0.4,6.6
	c-31.4,20.6-50.5,55.7-50.5,93.6c0,22,6.4,43.1,18.5,61.4c-3.9,8.2-5.9,17.2-5.9,26.3c0,4.4,0.5,8.8,1.4,13.1
	c-31.6,17.3-51.5,50.5-51.5,87.1c0,43.8,28.8,81.8,69.4,94.7c-4.4,9.6-6.7,19.9-6.7,30.6c0,32.8,21.6,61.5,52.4,71
	c9.7,45.3,50.1,78.5,97.1,78.5c7.4,0,14.7-0.8,22-2.5c12.7,24.4,37.8,40.1,65.7,40.1c26.3,0,49.4-13.7,62.6-34.3
	c13.2,20.6,36.3,34.3,62.6,34.3c27.9,0,53.1-15.7,65.7-40.1c7.2,1.7,14.6,2.5,22,2.5c47,0,87.4-33.2,97.1-78.5
	c30.8-9.5,52.4-38.1,52.4-71c0-10.6-2.3-21-6.7-30.6C733.6,569.5,762.4,531.4,762.4,487.7z M337.4,776.5
	c-21.6,0-40.8-13.9-47.9-34.5c-1-3-3.2-5.4-6-6.8c-2.8-1.4-6-1.6-9-0.5c-8.1,2.8-16.5,4.2-24.8,4.2c-38,0-70.3-28.4-75.2-66.1
	c-0.7-5-4.5-9.1-9.5-10c-24-4.5-41.4-25.5-41.4-49.9c0-9.6,2.8-18.8,8.1-27.1c1.6,0.8,3.3,1.2,5.2,1.2c18.5,0,36.2-5,51.6-14.4
	c4.9,36.3,36,64.5,73.7,64.5c41,0,74.4-33.4,74.4-74.4c0-6.5-5.3-11.7-11.7-11.7c-6.5,0-11.7,5.3-11.7,11.7
	c0,28.1-22.8,50.9-50.9,50.9s-50.9-22.8-50.9-50.9c0-3.4,0.3-6.9,1-10.2c0.9-4.3-0.7-8.5-3.8-11.1c-0.2-0.3-0.5-0.6-0.8-0.8
	c-4.6-4.5-12.1-4.5-16.6,0.2c-14.4,14.7-33.7,22.8-54.2,22.8c-1.8,0-3.5,0.4-5,1.1c-1.5-1-3.2-1.7-5-1.9
	c-37.6-5-65.9-37.3-65.9-75.2c0-30.7,18.3-58.3,46.7-70.1c2.9-1.2,5.2-3.5,6.3-6.4c1.2-2.9,1.2-6.1,0-9c-2-4.7-3-9.7-3-14.7
	c0-7.3,2.1-14.4,6.2-20.7c2.7-4.2,2.5-9.5-0.5-13.5c-11.9-15.6-18.2-34.1-18.2-53.5c0-32.2,17.5-61.9,45.8-77.5
	c0.1,0,0.1-0.1,0.2-0.1c13-7.1,27.6-10.9,42.5-10.9c25.4,0,49.6,10.9,66.4,30c2.3,2.6,5.6,4,8.8,4c2.8,0,5.5-1,7.8-2.9
	c4.9-4.3,5.3-11.7,1-16.6c-21.3-24.1-51.9-37.9-84-37.9c-13,0-25.9,2.3-38,6.7c1.6-11.7,8.5-22,19.1-28.1c3.9-2.3,6.2-6.6,5.9-11.1
	c-0.2-2.1-0.3-4-0.3-5.9c0-36,25.6-67.4,60.9-74.4c3.7-0.7,6.8-3.2,8.4-6.7c12.2-27.3,39.4-44.9,69.2-44.9
	c41.9,0,75.9,34.1,75.9,75.9v228.7c-15.9-16.9-38.4-27.6-63.4-27.6c-14.5,0-28.6,3.6-41.2,10.4c-10.1-6.7-21.9-10.4-34-10.4
	c-6.5,0-11.7,5.3-11.7,11.7s5.3,11.7,11.7,11.7c9.2,0,18.2,3.5,25.4,9.8c4,3.6,9.9,4,14.4,1c10.5-7.1,22.7-10.8,35.4-10.8
	c35,0,63.4,28.4,63.4,63.4v338.2C388.3,753.7,365.4,776.5,337.4,776.5L337.4,776.5z M673,562.9c-1.8,0.2-3.5,0.9-5,1.9
	c-1.5-0.7-3.2-1.1-5-1.1c-20.6,0-39.8-8.1-54.2-22.8c-4.5-4.6-12-4.7-16.6-0.2c-0.3,0.3-0.5,0.6-0.8,0.8c-3,2.7-4.6,6.9-3.8,11.1
	c0.7,3.3,1,6.8,1,10.2c0,28.1-22.8,50.9-50.9,50.9c-6.5,0-11.7,5.3-11.7,11.7s5.3,11.7,11.7,11.7c37.6,0,68.8-28.1,73.7-64.5
	c15.4,9.4,33.1,14.4,51.6,14.4c1.9,0,3.6-0.5,5.2-1.2c5.3,8.2,8.1,17.5,8.1,27.1c0,24.4-17.4,45.4-41.4,49.9c-5,0.9-8.8,5-9.5,10
	c-4.9,37.7-37.2,66.1-75.2,66.1c-8.3,0-16.7-1.4-24.8-4.2c-2.9-1-6.2-0.8-9,0.5c-2.8,1.4-5,3.8-6,6.8c-7.1,20.6-26.3,34.5-47.9,34.5
	c-28.1,0-50.9-22.8-50.9-50.9V484.4c15.9,16.9,38.4,27.6,63.4,27.6c14.5,0,28.6-3.6,41.2-10.4c10.1,6.7,21.9,10.4,34,10.4
	c6.5,0,11.7-5.3,11.7-11.7c0-6.5-5.3-11.7-11.7-11.7c-9.2,0-18.2-3.5-25.4-9.8c-4-3.6-9.9-4-14.4-1c-10.5,7.1-22.7,10.8-35.4,10.8
	c-35,0-63.4-28.4-63.4-63.4V235.6c7.6,6.1,16.7,10.3,26.6,12.3c0,0.6,0,1.3,0,1.9c0,41,33.4,74.4,74.4,74.4s74.4-33.4,74.4-74.4
	c0-6.5-5.3-11.7-11.7-11.7c-6.5,0-11.7,5.3-11.7,11.7c0,28.1-22.8,50.9-50.9,50.9c-28.1,0-50.9-22.8-50.9-50.9c0-3.5,0.4-6.9,1-10.3
	c0.7-3.5-0.2-7.2-2.5-9.9c-2.3-2.7-5.7-4.3-9.3-4.2c-0.6,0-1.1,0.1-1.5,0.1c-20.9-0.3-37.8-17.4-37.8-38.4V99.4
	c0-41.9,34.1-75.9,75.9-75.9c29.8,0,57,17.6,69.2,44.9c1.6,3.5,4.7,6,8.4,6.7c35.3,7.1,60.9,38.4,60.9,74.4c0,1.8-0.1,3.8-0.3,5.9
	c-0.3,4.5,1.9,8.8,5.9,11.1c10.7,6.1,17.6,16.4,19.1,28.1c-12.1-4.4-25-6.7-38-6.7c-6.5,0-11.7,5.3-11.7,11.7s5.3,11.7,11.7,11.7
	c14.9,0,29.5,3.8,42.5,10.9c0.1,0,0.1,0.1,0.2,0.1c28.2,15.6,45.8,45.3,45.8,77.5c0,19.4-6.3,37.9-18.2,53.5
	c-3,3.9-3.2,9.3-0.5,13.5c4,6.3,6.2,13.4,6.2,20.7c0,5.1-1,10-3,14.7c-1.2,2.9-1.2,6.1,0,9c1.2,2.9,3.5,5.2,6.3,6.4
	c28.4,11.8,46.7,39.4,46.7,70.1C738.9,525.6,710.6,557.9,673,562.9L673,562.9z"/>
</svg>
