<?xml version="1.0" encoding="utf-8"?>
<!-- Generator: Adobe Illustrator 28.4.1, SVG Export Plug-In . SVG Version: 6.00 Build 0)  -->
<svg version="1.1" id="Layer_1" xmlns="http://www.w3.org/2000/svg" xmlns:xlink="http://www.w3.org/1999/xlink" x="0px" y="0px"
	 viewBox="0 0 800 800" style="enable-background:new 0 0 800 800;" xml:space="preserve">
<style type="text/css">
	.st0{fill:#FF5757;}
</style>
<path class="st0" d="M465.1,50.6L465.1,50.6z M465.1,50.6L408.7,347l204.3,0.7L334.9,749.4l56.4-326.1L187,422.6L465.1,50.6z
	 M465.2,0.6c-1.4,0-2.7,0.1-4,0.1c-8.8,0.7-14.7,3.7-21.6,8.3c-3.8,2.6-7.4,5.7-10.5,9.3c-0.9,1.1-1.8,2.2-2.6,3.4L146.3,392.5
	c-11,15.2-12.7,35.2-4.2,51.9c8.5,16.7,25.6,27.3,44.5,27.5l144.3,1l-45.4,267.4c-4.3,23,7.9,45.9,29.5,55.1
	c6.4,2.8,13.2,4.1,19.8,4.1c15.7,0,28.6-7.3,38.3-20.6L653.7,377c11-15.2,12.7-35.2,4.2-51.9c-8.5-16.7-25.7-27.3-44.5-27.4
	l-144.3-0.2L514,62.4c1-3.8,1.4-7.7,1.4-11.8c0-27.1-21.5-49.1-48.5-50C466.3,0.6,465.7,0.6,465.2,0.6L465.2,0.6L465.2,0.6z"/>
</svg>
