<?xml version="1.0" encoding="utf-8"?>
<!-- Generator: Adobe Illustrator 28.4.1, SVG Export Plug-In . SVG Version: 6.00 Build 0)  -->
<svg version="1.1" id="Layer_1" xmlns="http://www.w3.org/2000/svg" xmlns:xlink="http://www.w3.org/1999/xlink" x="0px" y="0px"
	 viewBox="0 0 800 800" style="enable-background:new 0 0 800 800;" xml:space="preserve">
<style type="text/css">
	.st0{fill:#1125D4;}
</style>
<path class="st0" d="M764.1,387.6c-239.8-273.9-488.6-273.9-728.2,0c-2.9,3.3-4.6,7.6-4.6,12.4c0,4.7,1.8,9.1,4.6,12.4l0,0
	c119.8,137,242.3,206.4,364.1,206.4h0c121.7,0,244.3-69.4,364.1-206.4c2.9-3.3,4.7-7.6,4.7-12.4C768.7,395.2,767,390.9,764.1,387.6
	L764.1,387.6L764.1,387.6z M75.1,400c217.6-240.7,432.3-240.5,649.8,0C507.3,640.5,292.6,640.5,75.1,400z M400,281.2
	c-65.6,0-118.8,53.2-118.8,118.8S334.4,518.8,400,518.8S518.8,465.6,518.8,400l0,0C518.7,334.5,465.5,281.3,400,281.2L400,281.2z
	 M400,481.2c-44.9,0-81.2-36.4-81.2-81.2s36.4-81.2,81.2-81.2s81.2,36.4,81.2,81.2l0,0C481.2,444.9,444.9,481.2,400,481.2L400,481.2
	z"/>
</svg>
